# xmcd
#
# Track frame offsets: 
#        150
#        24147
#        43350
#        76332
#        90330
#        108057
#        146975
#        168517
#        193000
#        214787
#        235040
#
# Disc length: 3540 seconds
#
# Revision: 3
# Processed by: cddbd v1.5.2PL0 Copyright (c) Steve Scherf et al.
# Submitted via: ExactAudioCopy v0.99pb5
#
DISCID=890dd20b
DTITLE=Chemical Brothers - (1999) Surrender
DYEAR=1999
DGENRE=Electronic
TTITLE0=Music: Response
TTITLE1=Under The Influence
TTITLE2=Out Of Control
TTITLE3=Orange Wedge
TTITLE4=Let Forever Be
TTITLE5=The Sunshine Underground
TTITLE6=Asleep From The Day
TTITLE7=Got Glint?
TTITLE8=Hey Boy Hey Girl
TTITLE9=Surrender
TTITLE10=Dream On
EXTD=YEAR: 1999
EXTT0=
EXTT1=
EXTT2=
EXTT3=
EXTT4=
EXTT5=
EXTT6=
EXTT7=
EXTT8=
EXTT9=
EXTT10=
PLAYORDER=
